<svg width="46" height="51" viewBox="0 0 46 51" fill="none" xmlns="http://www.w3.org/2000/svg">
<mask id="mask0_63_142" style="mask-type:alpha" maskUnits="userSpaceOnUse" x="0" y="0" width="46" height="51">
<rect width="46" height="51" fill="#D9D9D9"/>
</mask>
<g mask="url(#mask0_63_142)">
<path d="M32.5833 42.5V36.125H26.8333V31.875H32.5833V25.5H36.4166V31.875H42.1666V36.125H36.4166V42.5H32.5833ZM21.0833 36.125H13.4166C10.7653 36.125 8.50519 35.0891 6.63644 33.0172C4.76769 30.9453 3.83331 28.4396 3.83331 25.5C3.83331 22.5604 4.76769 20.0547 6.63644 17.9828C8.50519 15.9109 10.7653 14.875 13.4166 14.875H21.0833V19.125H13.4166C11.8194 19.125 10.4618 19.7448 9.34373 20.9844C8.22567 22.224 7.66665 23.7292 7.66665 25.5C7.66665 27.2708 8.22567 28.776 9.34373 30.0156C10.4618 31.2552 11.8194 31.875 13.4166 31.875H21.0833V36.125ZM15.3333 27.625V23.375H30.6666V27.625H15.3333ZM42.1666 25.5H38.3333C38.3333 23.7292 37.7743 22.224 36.6562 20.9844C35.5382 19.7448 34.1805 19.125 32.5833 19.125H24.9166V14.875H32.5833C35.2347 14.875 37.4948 15.9109 39.3635 17.9828C41.2323 20.0547 42.1666 22.5604 42.1666 25.5Z" fill="#C5C5C5"/>
</g>
<g clip-path="url(#clip0_63_142)">
<mask id="mask1_63_142" style="mask-type:alpha" maskUnits="userSpaceOnUse" x="0" y="0" width="46" height="51">
<path d="M46 0H0V51H46V0Z" fill="#D9D9D9"/>
</mask>
<g mask="url(#mask1_63_142)">
<path d="M32.5833 42.5V36.125H26.8333V31.875H32.5833V25.5H36.4166V31.875H42.1666V36.125H36.4166V42.5H32.5833ZM21.0833 36.125H13.4166C10.7653 36.125 8.50519 35.0891 6.63644 33.0172C4.76769 30.9453 3.83331 28.4396 3.83331 25.5C3.83331 22.5604 4.76769 20.0547 6.63644 17.9828C8.50519 15.9109 10.7653 14.875 13.4166 14.875H21.0833V19.125H13.4166C11.8194 19.125 10.4618 19.7448 9.34373 20.9844C8.22567 22.224 7.66665 23.7292 7.66665 25.5C7.66665 27.2708 8.22567 28.776 9.34373 30.0156C10.4618 31.2552 11.8194 31.875 13.4166 31.875H21.0833V36.125ZM15.3333 27.625V23.375H30.6666V27.625H15.3333ZM42.1666 25.5H38.3333C38.3333 23.7292 37.7743 22.224 36.6562 20.9844C35.5382 19.7448 34.1805 19.125 32.5833 19.125H24.9166V14.875H32.5833C35.2347 14.875 37.4948 15.9109 39.3635 17.9828C41.2323 20.0547 42.1666 22.5604 42.1666 25.5Z" fill="#C5C5C5"/>
</g>
</g>
<defs>
<clipPath id="clip0_63_142">
<rect width="46" height="51" fill="white"/>
</clipPath>
</defs>
</svg>
