<svg width="32" height="32" viewBox="0 0 32 32" fill="none" xmlns="http://www.w3.org/2000/svg">
<mask id="mask0_63_134" style="mask-type:alpha" maskUnits="userSpaceOnUse" x="0" y="0" width="32" height="32">
<rect width="32" height="32" fill="#D9D9D9"/>
</mask>
<g mask="url(#mask0_63_134)">
<path d="M2.66666 32V26.6666H29.3333V32H2.66666ZM7.99999 21.3333H9.86666L20.2667 10.9666L18.3667 9.06663L7.99999 19.4666V21.3333ZM5.33332 24V18.3333L20.2667 3.43329C20.5111 3.18885 20.7944 2.99996 21.1167 2.86663C21.4389 2.73329 21.7778 2.66663 22.1333 2.66663C22.4889 2.66663 22.8333 2.73329 23.1667 2.86663C23.5 2.99996 23.8 3.19996 24.0667 3.46663L25.9 5.33329C26.1667 5.57774 26.3611 5.86663 26.4833 6.19996C26.6055 6.53329 26.6667 6.87774 26.6667 7.23329C26.6667 7.56663 26.6055 7.8944 26.4833 8.21663C26.3611 8.53885 26.1667 8.83329 25.9 9.09996L11 24H5.33332Z" fill="#C5C5C5"/>
</g>
</svg>
