<svg width="65" height="69" viewBox="0 0 65 69" fill="none" xmlns="http://www.w3.org/2000/svg">
<path d="M62.669 35.7898C62.669 51.4517 49.1407 64.201 32.3856 64.201C15.6305 64.201 2.10211 51.4517 2.10211 35.7898C2.10211 20.1278 15.6305 7.37854 32.3856 7.37854C49.1407 7.37854 62.669 20.1278 62.669 35.7898Z" fill="#279EFF" stroke="#279EFF"/>
<ellipse cx="32.6145" cy="35.5748" rx="21.8574" ry="20.528" fill="white"/>
<ellipse cx="32.5" cy="35.6823" rx="8.01056" ry="7.52336" fill="#279EFF"/>
<path d="M17.433 63.7687C17.433 69.6864 13.5305 68.9731 8.71648 68.9731C3.9025 68.9731 0 69.6864 0 63.7687C0 57.8511 3.9025 58.2583 8.71648 58.2583C13.5305 58.2583 17.433 57.8511 17.433 63.7687Z" fill="#279EFF"/>
<path d="M65 63.7687C65 69.6864 61.0975 68.9731 56.2835 68.9731C51.4696 68.9731 47.5671 69.6864 47.5671 63.7687C47.5671 57.8511 51.4696 58.2583 56.2835 58.2583C61.0975 58.2583 65 57.8511 65 63.7687Z" fill="#279EFF"/>
<path d="M18.7675 7.52336C18.7675 11.6784 15.1811 15.0467 10.757 15.0467C6.33285 15.0467 2.7464 11.6784 2.7464 7.52336C2.7464 3.36832 6.33285 0 10.757 0C15.1811 0 18.7675 3.36832 18.7675 7.52336Z" fill="#279EFF"/>
<ellipse cx="55.1585" cy="7.52336" rx="8.01056" ry="7.52336" fill="#279EFF"/>
</svg>
