<svg width="26" height="25" viewBox="0 0 26 25" fill="none" xmlns="http://www.w3.org/2000/svg">
<mask id="mask0_241_126" style="mask-type:alpha" maskUnits="userSpaceOnUse" x="0" y="0" width="26" height="25">
<rect width="26" height="24.6212" fill="#D9D9D9"/>
</mask>
<g mask="url(#mask0_241_126)">
<path d="M2.16663 24.6212V20.5177H23.8333V24.6212H2.16663ZM6.49996 16.4141H8.01663L16.4666 8.43788L14.9229 6.976L6.49996 14.9779V16.4141ZM4.33329 18.4659V14.1059L16.4666 2.64164C16.6652 2.45356 16.8954 2.30823 17.1573 2.20564C17.4191 2.10305 17.6944 2.05176 17.9833 2.05176C18.2722 2.05176 18.552 2.10305 18.8229 2.20564C19.0937 2.30823 19.3375 2.46211 19.5541 2.66729L21.0437 4.10353C21.2604 4.2916 21.4184 4.51388 21.5177 4.77035C21.617 5.02682 21.6666 5.29184 21.6666 5.56541C21.6666 5.82188 21.617 6.07408 21.5177 6.322C21.4184 6.56992 21.2604 6.79647 21.0437 7.00165L8.93746 18.4659H4.33329Z" fill="#C5C5C5"/>
</g>
</svg>
