<svg width="33" height="30" viewBox="0 0 33 30" fill="none" xmlns="http://www.w3.org/2000/svg">
<mask id="mask0_241_123" style="mask-type:alpha" maskUnits="userSpaceOnUse" x="0" y="0" width="33" height="30">
<rect width="33" height="29.6053" fill="#D9D9D9"/>
</mask>
<g mask="url(#mask0_241_123)">
<path d="M9.625 25.9046C8.86875 25.9046 8.22135 25.663 7.68281 25.1799C7.14427 24.6967 6.875 24.116 6.875 23.4375V7.40131H5.5V4.93421H12.375V3.70065H20.625V4.93421H27.5V7.40131H26.125V23.4375C26.125 24.116 25.8557 24.6967 25.3172 25.1799C24.7786 25.663 24.1313 25.9046 23.375 25.9046H9.625ZM23.375 7.40131H9.625V23.4375H23.375V7.40131ZM12.375 20.9704H15.125V9.86842H12.375V20.9704ZM17.875 20.9704H20.625V9.86842H17.875V20.9704Z" fill="#C5C5C5"/>
</g>
</svg>