<svg width="13" height="14" viewBox="0 0 13 14" fill="none" xmlns="http://www.w3.org/2000/svg">
<path d="M12.76 3.622C12.76 4.198 12.664 4.792 12.472 5.404C12.28 6.016 12.022 6.634 11.698 7.258C11.386 7.882 11.014 8.5 10.582 9.112C10.162 9.724 9.718 10.318 9.25 10.894C8.782 11.458 8.308 11.998 7.828 12.514C7.348 13.018 6.892 13.48 6.46 13.9C6.028 13.48 5.572 13.018 5.092 12.514C4.612 11.998 4.138 11.458 3.67 10.894C3.202 10.318 2.752 9.724 2.32 9.112C1.9 8.5 1.528 7.882 1.204 7.258C0.892 6.634 0.64 6.016 0.448 5.404C0.256 4.792 0.16 4.198 0.16 3.622C0.16 3.118 0.244 2.65 0.412 2.218C0.58 1.786 0.808 1.414 1.096 1.102C1.384 0.789999 1.72 0.543999 2.104 0.364C2.488 0.184 2.902 0.0939999 3.346 0.0939999C4.114 0.0939999 4.756 0.346 5.272 0.85C5.8 1.354 6.196 2.182 6.46 3.334C6.724 2.182 7.114 1.354 7.63 0.85C8.158 0.346 8.806 0.0939999 9.574 0.0939999C10.018 0.0939999 10.432 0.184 10.816 0.364C11.2 0.543999 11.536 0.789999 11.824 1.102C12.112 1.414 12.34 1.786 12.508 2.218C12.676 2.65 12.76 3.118 12.76 3.622Z" fill="#FF274E"/>
</svg>
