<svg width="24" height="24" viewBox="0 0 24 24" fill="none" xmlns="http://www.w3.org/2000/svg">
<mask id="mask0_241_138" style="mask-type:alpha" maskUnits="userSpaceOnUse" x="0" y="0" width="24" height="24">
<rect x="24" y="24" width="24" height="24" rx="12" transform="rotate(-180 24 24)" fill="#D9D9D9"/>
</mask>
<g mask="url(#mask0_241_138)">
<path d="M4 5C4.55228 5 5 5.44772 5 6L5 9C5 9.83333 5.29167 10.5417 5.875 11.125C6.45833 11.7083 7.16667 12 8 12L13.5843 12C14.9094 12 15.573 10.398 14.636 9.46103L14.2875 9.11253C13.895 8.72003 13.8979 8.08281 14.2938 7.69381V7.69381C14.6848 7.30964 15.3124 7.31241 15.7 7.70003L17.9867 9.98673C19.6509 11.6509 19.6509 14.3491 17.9867 16.0133L15.7 18.3C15.3124 18.6876 14.6848 18.6904 14.2938 18.3062V18.3062C13.8979 17.9172 13.895 17.28 14.2875 16.8875L14.636 16.539C15.573 15.602 14.9094 14 13.5843 14L8 14C6.61667 14 5.4375 13.5125 4.4625 12.5375C3.4875 11.5625 3 10.3833 3 9V6C3 5.44772 3.44772 5 4 5V5Z" fill="#C5C5C5"/>
</g>
</svg>
