<svg width="43" height="52" viewBox="0 0 43 52" fill="none" xmlns="http://www.w3.org/2000/svg">
<mask id="mask0_96_61" style="mask-type:alpha" maskUnits="userSpaceOnUse" x="0" y="0" width="43" height="52">
<rect width="43" height="52" fill="white"/>
</mask>
<g mask="url(#mask0_96_61)">
<path d="M12.5417 19.5V15.1666H37.625V19.5H12.5417ZM12.5417 28.1666V23.8333H37.625V28.1666H12.5417ZM12.5417 36.8333V32.5H37.625V36.8333H12.5417ZM7.16667 19.5C6.65903 19.5 6.23351 19.2923 5.8901 18.877C5.5467 18.4618 5.375 17.9472 5.375 17.3333C5.375 16.7194 5.5467 16.2048 5.8901 15.7895C6.23351 15.3743 6.65903 15.1666 7.16667 15.1666C7.67431 15.1666 8.09983 15.3743 8.44323 15.7895C8.78663 16.2048 8.95833 16.7194 8.95833 17.3333C8.95833 17.9472 8.78663 18.4618 8.44323 18.877C8.09983 19.2923 7.67431 19.5 7.16667 19.5ZM7.16667 28.1666C6.65903 28.1666 6.23351 27.959 5.8901 27.5437C5.5467 27.1284 5.375 26.6138 5.375 26C5.375 25.3861 5.5467 24.8715 5.8901 24.4562C6.23351 24.0409 6.65903 23.8333 7.16667 23.8333C7.67431 23.8333 8.09983 24.0409 8.44323 24.4562C8.78663 24.8715 8.95833 25.3861 8.95833 26C8.95833 26.6138 8.78663 27.1284 8.44323 27.5437C8.09983 27.959 7.67431 28.1666 7.16667 28.1666ZM7.16667 36.8333C6.65903 36.8333 6.23351 36.6257 5.8901 36.2104C5.5467 35.7951 5.375 35.2805 5.375 34.6666C5.375 34.0527 5.5467 33.5382 5.8901 33.1229C6.23351 32.7076 6.65903 32.5 7.16667 32.5C7.67431 32.5 8.09983 32.7076 8.44323 33.1229C8.78663 33.5382 8.95833 34.0527 8.95833 34.6666C8.95833 35.2805 8.78663 35.7951 8.44323 36.2104C8.09983 36.6257 7.67431 36.8333 7.16667 36.8333Z" fill="#C5C5C5"/>
</g>
</svg>
